<?xml version="1.0" encoding="utf-8"?>
<!-- Generator: Adobe Illustrator 16.0.3, SVG Export Plug-In . SVG Version: 6.00 Build 0)  -->
<!DOCTYPE svg PUBLIC "-//W3C//DTD SVG 1.1//EN" "http://www.w3.org/Graphics/SVG/1.1/DTD/svg11.dtd">
<svg version="1.1" id="search-duke" xmlns="http://www.w3.org/2000/svg" xmlns:xlink="http://www.w3.org/1999/xlink" x="0px" y="0px"
	 width="128px" height="128px" viewBox="0 0 128 128" enable-background="new 0 0 128 128" xml:space="preserve">
<path id="fill" fill="#FFFFFF" d="M71.36,13.33c27.81,10.91,29.87,51.24,10.73,68.95c-20.24,18.73-61.8,13.5-69.89-12.54
	C-0.55,28.7-4.66,45.61,21.01,20.69C45.07-2.68,30.97-2.52,71.36,13.33z"/>
<path id="body" d="M86.36,21.96c-4.42-5.39-10.08-9.74-16.51-12.44C62.6,6.49,54.62,5.64,47.44,2.44C44.21,1,41.11-0.71,37.46,0.31
	c-2.46,0.68-4.53,2.56-5.6,4.87c-1.34,2.89-2.68,5.25-5.29,7.22c-3.28,2.48-6.52,4.81-9.32,7.86c-2.49,2.71-4.17,6.61-7.05,8.84
	c-1.78,1.38-3.84,2.03-5.74,3.15c-2.49,1.46-4.22,3.99-4.43,6.9c-0.31,4.07,2.23,7.46,3.75,11.04c2.13,5.01,2.14,10.7,3.9,15.85
	c2.07,6.06,5.43,11.65,9.78,16.34c8.86,9.55,21.6,14.98,34.63,14.74c8.37-0.16,9.95-1.36,12.08-1.72
	c7.19-1.2,59.21,36.99,63.47,32.19c4.45-5.02-33.92-58.84-32.5-63.74C99.23,49.76,95.87,33.56,86.36,21.96z M11,56.74
	c-0.58-2.84-1.04-5.72-2.15-8.41c-1.29-3.11-6.13-9.35-1.31-11.62c3.21-1.51,6.45-3.08,8.64-6.01c3.2-4.24,5.93-8.2,10.2-11.51
	c4.3-3.34,8.36-6.2,10.3-11.56c2-5.02,9.04,0.06,12.11,1.14c5.25,1.84,10.75,2.85,16.02,4.63c5.55,1.88,10.56,4.89,14.71,9.04
	c1.15,1.57-2.67,0.85-3.31,0.83c-2.5-0.09-3.76,0.84-3.85,3.4c-0.07,2.02,0.41,3.97,0.55,5.97c0.12,1.76-1.94-1.2-2.45-1.74
	c-8.68-9.24-24.37-9.94-34.8-3.61c-9.94,6.02-15.54,17.89-12.88,29.44c0.82,3.57,2.15,7.02,4.28,10.03
	c0.49,0.69,2.09,2.06,2.01,3.04c-0.07,0.89-3.03,0.33-3.51,0.31c-2.65-0.13-3.66,0.1-3.76,2.81c-0.05,1.23,0.63,4.24-0.26,5.24
	c-0.22,0.25-0.55,0.04-0.74-0.12C15.64,72.22,12.11,64.89,11,56.74z M69.37,69.55c-4.94,4.31-10.47,7.03-17.17,7.13
	c-7.15,0.11-14.43-2.69-19.53-7.75c-7.61-7.55-10.06-18.9-5.93-28.89c6.01-13.42,21.31-20.07,34.72-13.2
	c12.11,6.2,18.51,21.91,13.22,34.67C73.41,64.59,71.56,67.09,69.37,69.55C69.35,69.57,69.38,69.54,69.37,69.55z M23.91,76.96
	c-0.16-0.89-1.08-4.92,0.32-5.4c6.02-2.05,12.7,4.56,18.11,6.03c12.39,3.37,25.13-3.11,31.71-13.62c3.78-6.07,5-13.45,3.52-20.42
	c-0.94-4.23-2.36-8.29-2.92-12.61c-0.19-1.42-0.63-3.62,0.19-4.93c0.96-1.54,5.98,1,7.15,1.62c6.24,3.33,8.39,12.13,9.22,18.6
	c1.9,14.87-4.92,29.87-17.23,38.36c-13.78,9.51-32.48,9.4-46.15-0.28C24.55,82,24.37,79.6,23.91,76.96z"/>
<g id="nose">
	<path fill="#ED1C24" d="M80.92,92.56c-6.38,0-11.56-5.19-11.56-11.57c0-6.38,5.19-11.57,11.56-11.57c6.38,0,11.56,5.19,11.56,11.57
		C92.48,87.37,87.29,92.56,80.92,92.56z"/>
	<path d="M80.92,71.42c5.28,0,9.56,4.29,9.56,9.57s-4.28,9.57-9.56,9.57c-5.28,0-9.56-4.28-9.56-9.57S75.64,71.42,80.92,71.42
		 M80.92,67.42c-7.48,0-13.56,6.09-13.56,13.57c0,7.48,6.08,13.57,13.56,13.57c7.48,0,13.56-6.09,13.56-13.57
		C94.48,73.51,88.4,67.42,80.92,67.42L80.92,67.42z"/>
</g>
</svg>
